# xmcd
#
# Track frame offsets: 
#        150
#        46278
#        70917
#        99576
#        102372
#        112816
#        117268
#        127470
#        130142
#        139308
#        142844
#        150684
#        157318
#        159730
#        162627
#        167829
#        183576
#        185732
#        210042
#        215321
#        231073
#        234607
#        240532
#        249398
#        258672
#        262041
#        265800
#
# Disc length: 3684 seconds
#
# Revision: 0
# Processed by: cddbd v1.5.2PL0 Copyright (c) Steve Scherf et al.
# Submitted via: ExactAudioCopy v1.1
#
DISCID=940e621b
DTITLE=Moura Lympany (p) Jean Martinon - The London Philharmonic Orche
DTITLE=stra (1-3) - Moura Lympany Milestones Of A Legend CD 9 - Saint-
DTITLE=Saëns Chopin
DYEAR=1951
DGENRE=Classical
TTITLE0=Moura Lympany (p) Jean Martinon - The London Philharmonic Orch
TTITLE0=estra - Saint-Saëns Piano Concerto No.2 G-minor op.22 - I. And
TTITLE0=ante sostenuto
TTITLE1=Moura Lympany (p) Jean Martinon - The London Philharmonic Orch
TTITLE1=estra - Saint-Saëns Piano Concerto No.2 G-minor op.22 - II. Al
TTITLE1=legro scherzando
TTITLE2=Moura Lympany (p) Jean Martinon - The London Philharmonic Orch
TTITLE2=estra - Saint-Saëns Piano Concerto No.2 G-minor op.22 - III. P
TTITLE2=resto
TTITLE3=Moura Lympany (p) - Chopin 24 Preludes-1 C-Dur Agitato
TTITLE4=Moura Lympany (p) - Chopin 24 Preludes-2 a-Moll Lento
TTITLE5=Moura Lympany (p) - Chopin 24 Preludes-3 G-Dur Vivace
TTITLE6=Moura Lympany (p) - Chopin 24 Preludes-4 e-Moll Largo
TTITLE7=Moura Lympany (p) - Chopin 24 Preludes-5 D-Dur Allegro molto
TTITLE8=Moura Lympany (p) - Chopin 24 Preludes-6 h-Moll Lento assai
TTITLE9=Moura Lympany (p) - Chopin 24 Preludes-7 A-Dur Andantino
TTITLE10=Moura Lympany (p) - Chopin 24 Preludes-8 fis-Moll Molto agita
TTITLE10=to
TTITLE11=Moura Lympany (p) - Chopin 24 Preludes-9 E-Dur Largo
TTITLE12=Moura Lympany (p) - Chopin 24 Preludes-10 cis-Moll Allegro mo
TTITLE12=lto
TTITLE13=Moura Lympany (p) - Chopin 24 Preludes-11 H-Dur Vivace
TTITLE14=Moura Lympany (p) - Chopin 24 Preludes-12 gis-Moll Presto
TTITLE15=Moura Lympany (p) - Chopin 24 Preludes-13 Fis-Dur Lento
TTITLE16=Moura Lympany (p) - Chopin 24 Preludes-14 es-Moll Allegro
TTITLE17=Moura Lympany (p) - Chopin 24 Preludes-15 Des-Dur Sostenuto
TTITLE18=Moura Lympany (p) - Chopin 24 Preludes-16 b-Moll Presto con f
TTITLE18=uoco
TTITLE19=Moura Lympany (p) - Chopin 24 Preludes-17 As-Dur Allegretto
TTITLE20=Moura Lympany (p) - Chopin 24 Preludes-18 f-Moll Allegro molt
TTITLE20=o
TTITLE21=Moura Lympany (p) - Chopin 24 Preludes-19 Es-Dur Vivace
TTITLE22=Moura Lympany (p) - Chopin 24 Preludes-20 c-Moll Largo
TTITLE23=Moura Lympany (p) - Chopin 24 Preludes-21 B-Dur Cantabile
TTITLE24=Moura Lympany (p) - Chopin 24 Preludes-22 g-Moll Molto agitat
TTITLE24=o
TTITLE25=Moura Lympany (p) - Chopin 24 Preludes-23 F-Dur Moderato
TTITLE26=Moura Lympany (p) - Chopin 24 Preludes-24 d-Moll Allegro appa
TTITLE26=ssionato
EXTD=
EXTT0=
EXTT1=
EXTT2=
EXTT3=
EXTT4=
EXTT5=
EXTT6=
EXTT7=
EXTT8=
EXTT9=
EXTT10=
EXTT11=
EXTT12=
EXTT13=
EXTT14=
EXTT15=
EXTT16=
EXTT17=
EXTT18=
EXTT19=
EXTT20=
EXTT21=
EXTT22=
EXTT23=
EXTT24=
EXTT25=
EXTT26=
PLAYORDER=
